<?xml version="1.0" encoding="UTF-8" standalone="no"?>
<svg
   xmlns:dc="http://purl.org/dc/elements/1.1/"
   xmlns:cc="http://creativecommons.org/ns#"
   xmlns:rdf="http://www.w3.org/1999/02/22-rdf-syntax-ns#"
   xmlns:svg="http://www.w3.org/2000/svg"
   xmlns="http://www.w3.org/2000/svg"
   xmlns:sodipodi="http://sodipodi.sourceforge.net/DTD/sodipodi-0.dtd"
   xmlns:inkscape="http://www.inkscape.org/namespaces/inkscape"
   width="615"
   height="494.52802"
   viewBox="0 0 615 494.528"
   version="1.1"
   id="svg124"
   sodipodi:docname="kleber_logo.svg"
   inkscape:version="1.0.2 (e86c870879, 2021-01-15)">
  <metadata
     id="metadata130">
    <rdf:RDF>
      <cc:Work
         rdf:about="">
        <dc:format>image/svg+xml</dc:format>
        <dc:type
           rdf:resource="http://purl.org/dc/dcmitype/StillImage" />
        <dc:title></dc:title>
      </cc:Work>
    </rdf:RDF>
  </metadata>
  <defs
     id="defs128" />
  <sodipodi:namedview
     pagecolor="#ffffff"
     bordercolor="#666666"
     borderopacity="1"
     objecttolerance="10"
     gridtolerance="10"
     guidetolerance="10"
     inkscape:pageopacity="0"
     inkscape:pageshadow="2"
     inkscape:window-width="1357"
     inkscape:window-height="718"
     id="namedview126"
     showgrid="false"
     inkscape:zoom="0.61627049"
     inkscape:cx="213.05377"
     inkscape:cy="340.22782"
     inkscape:window-x="0"
     inkscape:window-y="27"
     inkscape:window-maximized="0"
     inkscape:current-layer="svg124" />
  <path
     d="m 360.59949,272.05739 v 25.14 h -73.28 a 3852.426,3852.426 0 0 0 -19.902,-25.14 z"
     fill="#ef8c49"
     id="path2" />
  <path
     d="m 255.93749,41.615395 c -7.081,7.332 -12.738,16.885 -14.623,29.329 h -30.712 v -29.329 z"
     fill="#f6f6f6"
     id="path4" />
  <path
     d="m 241.31449,70.944395 a 61.48,61.48 0 0 0 -0.712,9.427 v 11.522 h -89.496 v -20.949 z"
     fill="#ebefee"
     id="path6" />
  <path
     d="m 158.69049,20.666395 v 20.949 h -49.23 a 38.08,38.08 0 0 0 -11.858001,-8.966 c -9.679,-4.735 -23.59,-8.213 -43.533,-8.213 v -3.77 z"
     fill="#f2fbf8"
     id="path8" />
  <path
     fill="#dce5e2"
     d="M 54.069489,2.8173945 H 108.41149 V 20.666395 H 54.069489 Z"
     id="path10" />
  <path
     d="m 293.64549,20.666395 c -9.72,2.681 -25.767,8.673 -37.708,20.949 h -97.248 v -20.95 h 134.955 z"
     fill="#f5fbf9"
     id="path12" />
  <path
     fill="#dfd5bc"
     d="m 204.35949,91.893395 h 36.242 v 29.328995 h -36.242 z"
     id="path14" />
  <path
     fill="#f6f6f6"
     d="m 158.69049,121.22239 h 81.912 v 20.949 h -81.912 z"
     id="path16" />
  <path
     fill="#f67532"
     d="m 119.76649,121.22239 h 38.924 v 20.949 h -38.924 z"
     id="path18" />
  <path
     fill="#eb9c71"
     d="m 119.76649,142.17239 h 84.593 v 29.329 h -84.593 z"
     id="path20" />
  <path
     fill="#e4dcc8"
     d="m 119.76649,171.50139 h 34.482 v 25.139 h -34.482 z"
     id="path22" />
  <path
     d="m 363.02949,221.77939 v 25.139 h -102.148 v -24.343 c 0.293,-0.252 0.586,-0.545 0.921,-0.796 z"
     fill="#ff7b3c"
     id="path24" />
  <path
     d="m 260.88149,222.57539 v 24.343 h -106.632 v -25.14 h 86.353 v 17.975 c 5.153,-4.357 12.108,-10.223 20.279,-17.178 z"
     fill="#feb16d"
     id="path26" />
  <path
     fill="#eb9c71"
     d="m 119.76649,221.77939 h 34.482 v 25.139 h -34.482 z"
     id="path28" />
  <path
     fill="#ffb596"
     d="m 154.24949,171.50139 v 25.139 h -34.483 v 25.139 h 84.593 v -25.14 h 36.243 v -25.137 z"
     id="path30" />
  <path
     fill="#e4dcc8"
     d="m 204.35949,196.64039 h 36.242 v 25.139 h -36.242 z"
     id="path32" />
  <path
     d="m 304.11949,246.91839 v 25.139 h -36.702 c -2.64,-3.31 -4.106,-5.154 -4.106,-5.154 l -9.637,5.154 h -49.315 v -25.14 h 99.76 z m -50.445,25.139 -13.072,6.997 v 18.142 h -89.58 c -0.083,-6.913 -0.167,-17.723 -0.125,-25.139 z"
     fill="#fd957e"
     id="path34" />
  <path
     d="m 151.02249,297.19639 h -31.256 v -25.139 h 31.13 c -0.041,7.416 0.043,18.226 0.126,25.14 z"
     fill="#e47f49"
     id="path36" />
  <path
     fill="#e9942d"
     d="m 201.67849,297.19639 h 38.924 v 29.329 h -38.924 z"
     id="path38" />
  <path
     fill="#e47f49"
     d="m 119.76649,297.19639 h 81.912 v 29.329 h -81.912 z"
     id="path40" />
  <path
     fill="#ff6e4f"
     d="m 151.10649,326.52539 h 89.495 v 20.949 h -89.495 z"
     id="path42" />
  <path
     fill="#ea6b1c"
     d="m 119.76649,326.52539 h 31.34 v 20.949 h -31.34 z"
     id="path44" />
  <path
     fill="#ee6316"
     d="m 119.76649,347.47439 h 84.593 v 29.329 h -84.593 z"
     id="path46" />
  <path
     d="m 204.35949,401.94239 v 25.14 h -85.305 c 0.46,-4.148 0.712,-8.59 0.712,-13.408 v -11.731 h 84.593 z"
     fill="#e65e18"
     id="path48" />
  <path
     d="m 241.06349,427.08239 h -36.704 v -25.14 h 36.243 v 18.394 c 0,2.262 0.125,4.525 0.46,6.746 z"
     fill="#df7807"
     id="path50" />
  <path
     fill="#fd9244"
     d="m 119.76649,376.80339 h 34.482 v 25.139 h -34.482 z"
     id="path52" />
  <path
     fill="#d2570c"
     d="m 204.35949,347.47439 h 36.242 v 29.329 h -36.242 z"
     id="path54" />
  <path
     d="m 154.24949,427.08239 v 25.139 h -42.402 c 3.478,-6.578 6.034,-14.832 7.207,-25.14 h 35.195 z"
     fill="#fda748"
     id="path56" />
  <path
     d="m 295.74049,475.30739 v 2.053 h -79.481 v -25.14 h 34.482 c 9.679,13.743 25.516,22.836 43.533,23.087 z"
     fill="#fa7810"
     id="path58" />
  <path
     fill="#db7e53"
     d="m 265.32249,477.36039 h 30.418 v 15.796 h -30.418 z"
     id="path60" />
  <path
     fill="#984f0d"
     d="m 158.27149,477.36039 h 107.051 v 15.796 h -107.051 z"
     id="path62" />
  <path
     d="m 216.25949,452.22139 v 25.139 H 66.889489 c 5.908,0 13.198,-0.754 20.489,-3.436 9.134,-3.394 18.268001,-9.846 24.468001,-21.703 z"
     fill="#d74e00"
     id="path64" />
  <path
     d="m 87.379489,473.92439 c -7.29,2.682 -14.581,3.436 -20.489,3.436 z"
     fill="#ffffff"
     id="path66" />
  <path
     d="m 608.76449,481.00539 v 12.15 h -40.935 v -15.795 h 34.231 a 171.081,171.081 0 0 0 6.704,3.645 z"
     fill="#e09a93"
     id="path68" />
  <path
     fill="#936a50"
     d="m 471.71449,477.36039 h 96.115 v 15.796 h -96.115 z"
     id="path70" />
  <path
     d="m 471.71449,477.36039 v 15.795 h -111.115 v -12.988 c 0,0 7.416,-0.629 16.13,-2.807 z"
     fill="#e95600"
     id="path72" />
  <path
     d="m 466.43549,427.08239 v 25.139 h -63.309 c -0.46,-1.425 -1.09,-2.891 -1.97,-4.483 -2.387,-4.232 -7.29,-11.48 -13.91,-20.656 z"
     fill="#a26129"
     id="path74" />
  <path
     d="m 565.69249,452.22139 h -99.257 v -25.14 h 72.359 c 6.452,6.872 15.586,15.838 26.898,25.14 z"
     fill="#f2674b"
     id="path76" />
  <path
     fill="#b16421"
     d="m 517.84449,401.94239 h -51.41 v -25.139 h 31.718 z"
     id="path78" />
  <path
     d="m 466.43549,376.80339 v 25.14 h -97.75 a 6368.7,6368.7 0 0 0 -19.105,-25.14 z"
     fill="#e05001"
     id="path80" />
  <path
     d="m 413.30849,347.47439 v 29.33 h -63.729 c -7.458,-9.637 -15.126,-19.567 -22.751,-29.33 h 86.479 z"
     fill="#a45b16"
     id="path82" />
  <path
     fill="#e53200"
     d="m 458.76749,326.52539 h -47.89 v -29.329 h 24.93 z"
     id="path84" />
  <path
     d="m 410.87749,297.19639 v 29.33 h -100.43 c -2.305,-2.976 -4.61,-5.867 -6.83,-8.716 a 3267.044,3267.044 0 0 0 -16.298,-20.614 z"
     fill="#ffa24d"
     id="path86" />
  <path
     d="m 458.76749,326.52539 h -148.32 c 5.32,6.788 10.851,13.827 16.382,20.95 h 148.362 z"
     fill="#f16510"
     id="path88" />
  <path
     fill="#c27b4d"
     d="m 435.80749,297.19639 h -75.208 v -25.139 h 55.516 z"
     id="path90" />
  <path
     fill="#ce9b66"
     d="m 416.11549,272.05739 h -111.996 v -25.14 h 92.302 z"
     id="path92" />
  <path
     d="m 312.20649,196.64039 c 0,6.745 0,17.723 -0.042,25.139 h -50.362 c 8.715,-7.416 18.771,-15.964 29.455,-25.14 h 20.95 z"
     fill="#be9f80"
     id="path94" />
  <path
     fill="#ff8b7c"
     d="m 396.42249,246.91839 h -33.393 v -25.14 h 13.7 z"
     id="path96" />
  <path
     d="m 351.71749,189.85239 5.32,6.788 h -65.78 c 9.343,-8.045 19.231,-16.55 29.161,-25.14 h 51.368 c -6.536,5.783 -13.198,11.941 -20.07,18.352 z"
     fill="#dbd1b8"
     id="path98" />
  <path
     d="m 406.05949,142.17239 a 929.824,929.824 0 0 0 -34.273,29.329 h -51.368 c 11.313,-9.847 22.71,-19.819 33.394,-29.33 h 52.247 z"
     fill="#f0f4f5"
     id="path100" />
  <path
     d="m 151.10649,70.944395 h -31.34 v 20.95 h 31.34 z m 53.253,100.556995 h 36.243 v -29.33 h -36.243 z m -84.593,100.556 h 84.593 v -25.14 h -84.593 z m 192.44,-75.417 c 0,6.745 0,17.723 -0.042,25.139 h 64.566 l -19.692,-25.14 h -44.832 z m 78.057,-87.443 c -0.419,0.42 -0.838,0.796 -1.257,1.215 -9.846,9.176 -21.996,20.112 -35.194,31.76 h 52.247 a 513.72,513.72 0 0 1 8.505,-6.872 v -26.103 h -24.3 z"
     fill="#f3b77d"
     id="path102" />
  <path
     d="m 449.17349,109.19739 c -10.726,7.584 -22.248,16.257 -34.609,26.103 v -26.103 z"
     fill="#fbfdfc"
     id="path104" />
  <path
     d="m 474.89949,91.893395 a 634.61,634.61 0 0 0 -25.726,17.303995 h -58.91 c 6.83,-6.578 10.852,-12.317995 12.695,-17.303995 h 71.94 z"
     fill="#fbfdfc"
     id="path106" />
  <path
     d="m 414.56449,70.944395 v 20.95 h -11.605 c 3.52,-9.428 -0.628,-16.174 -7.793,-20.95 h 19.4 z"
     fill="#fbfffe"
     id="path108" />
  <path
     d="m 549.56149,54.729395 v 0.503 c 0,0 -13.114,2.85 -38.295,15.712 h -96.702 v -16.215 z"
     fill="#fafffe"
     id="path110" />
  <path
     fill="#ffffff"
     d="m 351.71749,40.651395 h 12.57 v 14.078 h -12.57 z"
     id="path112" />
  <path
     fill="#f2f4f3"
     d="m 364.28649,40.651395 h 101.353 v 14.078 h -101.353 z"
     id="path114" />
  <path
     d="m 119.76649,68.723395 v 2.221 h 90.836 v -29.329 h -101.143 c 6.578,7.29 10.307,16.969 10.307,27.108 z m -11.354,-48.057 h 185.233 c 5.196,-1.425 8.59,-1.928 8.59,-1.928 V 2.8173945 h -193.824 V 20.666395 Z m 11.354,100.555995 h 84.593 V 91.893395 h -84.593 v 29.329995 z m 294.798,-29.328995 h 60.334 c 14.036,-8.924 26.187,-15.754 36.368,-20.949 h -96.702 v 20.95 z m -62.847,-37.164 v 4.567 c 0,0 5.32,0.293 12.57,1.467 9.51,1.466 22.331,4.44 30.878,10.181 h 19.4 v -16.215 z m 113.922,-14.077 v 14.078 h 83.922 v -14.078 z"
     fill="#dddddd"
     id="path116" />
  <path
     fill="#fc9208"
     d="m 406.01749,401.94339 h 98.126 v 25.139 h -98.126 z"
     id="path118" />
  <path
     d="m 475.19149,347.47439 h -61.882 v 29.33 h 84.844 l -22.96,-29.33 z m 90.501,104.748 h -162.566 c 4.483,14.496 -12.57,21.745 -26.396,25.139 h 225.329 c -13.7,-7.71 -25.935,-16.55 -36.368,-25.14 z m -38.002,-37.709 -9.846,-12.57 h -13.7 v 25.14 h 34.65 c -7.165,-7.584 -11.104,-12.57 -11.104,-12.57 z m -287.088,-37.709 h -86.353 v 25.14 h 86.353 z m -86.353,50.278 v 25.139 h 96.492 c -5.153,-7.29 -8.59,-15.88 -9.678,-25.14 h -86.814 z m 251.768,0 v -25.14 h -37.332 c 6.997,9.302 13.324,17.85 18.561,25.14 z m -351.948001,66.073 H 158.27149 v -15.795 H 54.069489 Z"
     fill="#ff3627"
     id="path120" />
  <path
     d="m 609.72849,479.16239 c -1.09,-0.587 -2.22,-1.174 -3.352,-1.802 l -0.461,-0.251 -2.807,-1.593 c -0.168,-0.084 -0.293,-0.167 -0.461,-0.251 -11.983,-6.746 -24.008,-15.084 -35.614,-24.678 -0.21,-0.168 -0.419,-0.336 -0.586,-0.461 -10.098,-8.38 -18.268,-16.299 -23.84,-22.08 l -2.305,-2.389 c -0.21,-0.21 -0.42,-0.46 -0.629,-0.67 -6.62,-7.04 -10.306,-11.732 -10.348,-11.774 l -7.165,-9.176 -3.31,-4.19 -16.383,-20.949 -3.31,-4.19 -19.65,-25.139 -3.31,-4.19 -13.114,-16.759 -3.31,-4.19 -19.65,-25.139 -3.31,-4.19 -16.383,-20.95 -3.31,-4.189 -16.382,-20.95 -3.31,-4.189 -16.382,-20.95 -3.31,-4.19 -16.383,-20.948 -3.31,-4.19 -3.477,-4.483 a 854.957,854.957 0 0 1 17.974,-16.467 h 0.042 l 0.587,-0.544 c 1.34,-1.215 2.723,-2.43 4.106,-3.645 a 935.222,935.222 0 0 1 29.538,-25.14 l 0.587,-0.46 c 1.55,-1.258 3.016,-2.514 4.525,-3.73 0.167,-0.125 0.335,-0.25 0.545,-0.419 l 3.393,-2.723 c 0.252,-0.21 0.545,-0.419 0.796,-0.628 11.606,-9.176 22.751,-17.598 33.184,-25.014 l 0.545,-0.377 a 601.354,601.354 0 0 1 25.139,-16.926995 l 0.503,-0.335 c 12.444,-7.877 24.426,-14.832 35.74,-20.614 l 0.46,-0.21 c 24.552,-12.57 37.667,-15.502 37.793,-15.544 l 1.633,-0.377 v -18.352 h -202.034 v 22.71 l 1.969,0.125 c 0.042,0 5.321,0.293 12.36,1.425 9.134,1.424 21.703,4.273 30.041,9.888 7.5,4.986 9.763,11.019 6.997,18.477 -1.76,4.734 -5.656,10.097995 -11.606,15.920995 -0.167,0.21 -0.377,0.377 -0.586,0.587 l -1.215,1.173 c -9.176,8.59 -20.74,19.022 -34.525,31.215 -0.209,0.167 -0.419,0.335 -0.628,0.544 l -4.106,3.645 h -0.042 c -9.26,8.254 -18.98,16.718 -28.659,25.14 -0.21,0.167 -0.377,0.335 -0.586,0.502 l -4.232,3.687 a 7397.12,7397.12 0 0 1 -22.541,19.4 l -1.802,1.55 -0.587,0.502 c -9.678,8.296 -18.812,16.09 -26.898,23.003 -0.084,0.084 -0.168,0.126 -0.252,0.21 l -1.634,1.424 -0.754,0.586 -0.377,0.335 -1.173,1.006 -2.682,2.263 c -5.07,4.315 -9.595,8.128 -13.407,11.354 V 80.371395 c 0,-2.472 0.167,-4.944 0.419,-7.332 l 0.251,-1.76 0.042,-0.251 c 1.634,-10.643 6.368,-20.028 14.036,-27.947 11.731,-12.066 27.779,-17.89 36.452,-20.32 h 0.042 l 0.251,-0.084 c 4.986,-1.341 8.338,-1.844 8.338,-1.886 l 1.801,-0.251 V 0.72239453 H 51.975489 V 26.532395 h 2.094 c 17.43,0 31.76,2.681 42.611,8.002 4.148001,2.011 7.751001,4.693 10.810001,8.045 0.168,0.125 0.293,0.251 0.419,0.419 v 0.041 c 6.285,6.956 9.762,16.09 9.762,25.684 V 413.67439 c 0,4.567 -0.251,9.008 -0.712,13.156 -1.006,8.967 -3.142,16.802 -6.368,23.296 l -0.587,1.13 c -5.19,9.839 -12.976001,16.83 -23.227001,20.646 l -20.072,3.363 h -14.73 v 19.985 H 297.83549 v -22.038 h -3.52 c -16.591,-0.251 -32.22,-8.547 -41.856,-22.206 -4.609,-6.495 -7.71,-14.036 -8.966,-21.83 -0.126,-0.796 -0.252,-1.55 -0.335,-2.346 l -0.21,-1.843 h -0.084 c -0.126,-1.425 -0.167,-2.975 -0.167,-4.65 v -140.027 l 11.48,-6.16 7.835,-4.189 0.754,-0.377 0.293,0.377 3.352,4.19 c 3.77,4.693 9.553,11.94 16.634,20.95 h -0.084 l 2.723,3.393 c 0.21,0.251 0.42,0.503 0.629,0.796 a 2531.519,2531.519 0 0 1 15.67,19.818 l 2.85,3.645 c 0.418,0.545 0.88,1.09 1.298,1.676 l 3.31,4.19 1.634,2.095 c 3.77,4.818 7.584,9.72 11.438,14.664 l 2.682,3.394 0.586,0.796 h 0.042 c 6.285,8.087 12.612,16.257 18.855,24.301 l 0.67,0.838 3.184,4.19 c 5.53,7.207 10.894,14.288 15.964,20.95 l 2.514,3.351 c 0.21,0.294 0.419,0.587 0.628,0.838 5.991,7.961 11.187,15 15.503,20.95 0.838,1.13 1.634,2.262 2.388,3.31 l 0.628,0.88 c 6.41,8.924 10.978,15.628 13.156,19.566 0.796,1.425 1.383,2.766 1.802,4.106 1.09,3.436 0.796,6.453 -0.754,9.26 -3.98,6.997 -15.335,11.061 -24.134,13.198 l -3.1,0.754 c -7.04,1.55 -12.654,2.011 -12.695,2.011 l -1.928,0.168 v 17.01 h 252.355 v -15.502 l -1.131,-0.587 z m -15.377,-3.897 h -69.468 v -20.95 h 40.055 c 9.637,7.878 19.483,14.917 29.413,20.95 z m -34.399,-25.14 h -91.422 v -20.948 h 69.342 a 298.303,298.303 0 0 0 22.08,20.949 z m -39.258,4.19 v 20.95 h -98.378 v -20.95 z m -112.582,-29.328 v -20.95 h 93.937 v 20.95 z m 117.944,-9.176 c 0.126,0.167 2.891,3.645 7.92,9.176 h -27.738 v -20.95 h 10.6 z m -12.527,-15.963 h -45 v -20.95 h 28.618 z m -19.693,-25.14 h -78.434 v -25.139 h 58.784 l 19.65,25.14 z m -22.96,-29.329 h -108.182 v -16.759 h 95.068 l 13.114,16.76 z m -16.424,-20.949 h -41.48 v -25.138 h 21.83 l 19.65,25.14 z m -22.96,-29.329 h -68.798 v -20.95 h 52.415 l 16.382,20.95 z m -19.693,-25.139 h -105.584 v -20.95 h 89.202 z m -19.692,-25.139 h -26.983 v -20.95 h 10.6 z m -36.075,-46.088 16.382,20.949 h -58.155 c 0.042,-6.494 0.042,-14.874 0.042,-20.95 h 41.731 z m 60.627,-67.75 v -19.693 h 25.977 c -8.296,5.992 -17.01,12.612 -25.977,19.693 z m 57.61,-41.186995 h -57.61 v -16.76 h 86.102 c -9.134,4.945 -18.687,10.56 -28.491,16.76 z m 36.495,-20.949 h -94.105 v -12.025 h 121.003 c -6.326,2.347 -15.335,6.16 -26.898,12.025 z m -43.03,-26.103 h 79.732 v 9.888 h -79.732 z m -101.353,0 h 97.163 v 9.888 h -97.163 z m -12.57,0 h 8.38 v 9.888 h -8.38 z m 41.983,26.103 c -8.966,-5.782 -21.871,-8.715 -31.173,-10.14 a 121.933,121.933 0 0 0 -10.81,-1.34 v -0.545 h 58.659 v 12.025 z m 5.195,4.19 h 11.48 v 16.76 h -6.703 c 1.508,-6.285 -0.126,-11.984 -4.777,-16.76 z m 3.394,20.95 h 63.393 a 787.632,787.632 0 0 0 -19.274,13.112995 h -53.253 c 4.274,-4.609 7.333,-9.007995 9.134,-13.113995 z m -13.91,17.889995 0.586,-0.545 21.41,-0.042 v 23.003 c -2.346,1.885 -4.734,3.77 -7.164,5.782 h -45.963 c 12.234,-10.852 22.71,-20.321 31.13,-28.198 z m -35.865,32.387 h 45.585 a 930.798,930.798 0 0 0 -29.203,25.14 h -45 c 9.721,-8.464 19.442,-16.97 28.618,-25.14 z m -33.394,29.33 h 45.083 c -5.405,4.86 -10.851,9.93 -16.005,14.706 l -1.424,1.34 3.854,4.903 h -55.809 c 7.877,-6.788 16.047,-13.827 24.301,-20.95 z m -29.203,25.139 h 18.1 c 0,6.075 0,14.455 -0.042,20.949 h -42.568 c 7.5,-6.369 15.795,-13.45 24.51,-20.95 z m -29.035,25.139 h 97.958 v 20.948 h -97.958 v -20.95 z m -17.891,14.832 c 3.854,-3.268 8.505,-7.165 13.7,-11.606 v 17.722 h -102.44 v -20.95 h 82.163 v 20.405 l 6.578,-5.572 z m -42.82,110.863 v 25.14 h -80.404 v -25.14 z m -80.404,-4.19 v -16.759 h 27.15 v 16.76 h -27.15 z m 30.293,33.52 v 20.949 h -30.293 v -20.95 h 30.293 z m 50.11,25.138 v 20.95 h -80.905 c 0.335,-3.645 0.503,-7.416 0.503,-11.313 v -9.637 h 80.404 z m -45.92,-4.19 v -20.949 h 82.163 v 20.95 h -82.163 z m 50.11,-25.139 v -25.139 h 32.053 v 25.14 h -32.053 z m 0,29.33 h 32.053 v 16.298 c 0,1.634 0.084,3.184 0.21,4.65 h -32.263 v -20.949 z m 32.053,-79.608 h -34.734 v -25.138 h 34.734 v 25.14 z m 0,4.19 v 16.76 h -85.306 v -16.76 z m -38.924,-4.19 h -77.722 v -25.138 h 77.722 v 25.14 z m -77.722,-29.329 v -20.95 h 26.941 c -0.042,6.495 0.042,14.75 0.084,20.95 z m 0,-25.139 v -20.95 h 80.404 v 20.95 z m 80.404,-175.973995 v 25.139995 h -80.404 V 93.988395 Z m -80.404,-4.19 v -16.76 h 27.15 v 16.76 z m 34.483,104.746995 v -20.95 h 82.163 v 20.95 z m 82.163,4.19 v 20.949 h -32.053 v -20.95 h 32.053 z m -32.053,-29.33 v -25.139 h 32.053 v 25.14 h -32.053 z m -45.67,-29.328 v -16.76 h 77.723 v 16.76 h -77.722 z m 45.67,-20.95 V 93.988395 h 32.053 v 25.139995 h -32.053 z m -53.253,-29.328995 v -16.76 h 85.725 c -0.294,2.39 -0.42,4.861 -0.42,7.333 v 9.427 z m 3.394,33.519995 v 16.759 h -34.734 v -16.76 h 34.734 z m 45.67,20.948 v 25.14 h -80.404 v -25.14 z m -50.111,29.33 v 20.949 h -30.293 v -20.95 h 30.293 z m 50.11,25.139 v 20.949 h -80.403 v -20.95 h 80.404 z m -50.11,25.139 v 20.948 h -30.293 v -20.95 h 30.293 z m 87.4,-155.024995 h -26.857 v -25.14 h 38.547 c -6.075,7.375 -9.972,15.797 -11.69,25.14 z m 15.503,-29.329 h -94.272 v -16.76 h 120.249 c -8.631,3.562 -18.1,8.883 -25.977,16.76 z m -42.36,-34.6080005 h 87.443 V 16.979395 a 96.172,96.172 0 0 0 -6.788,1.592 h -80.655 V 4.9113945 Z m -102.19,0 h 98 V 18.571395 h -98 V 4.9113945 Z m -54.343001,0 H 106.31749 V 18.571395 H 56.164489 V 4.9113945 Z m 42.36,25.8510005 c -8.883,-4.357 -19.902,-7.039 -32.89,-8.002 h 90.961001 v 16.76 h -46.214 c -3.352,-3.604 -7.332,-6.537 -11.857001,-8.758 z m 15.334001,12.947 h 94.65 v 25.14 h -86.647 v -0.128 c 0,-9.092 -2.807,-17.807 -8.003,-25.013 z m 7.04,385.466995 h 31.256 v 20.949 h -36.955 c 2.766,-6.076 4.65,-13.114 5.698,-20.95 z m -7.794,25.139 h 101.06 v 20.949 H 89.724489 c 10.14,-4.148 17.976001,-11.187 23.380001,-20.95 z m 43.072,36.745 H 56.164489 v -11.606 H 156.17649 Z m 107.05,0 h -102.86 v -11.606 h 102.86 z m 30.42,0 h -26.23 v -11.606 h 26.23 z m -13.87,-15.796 h -61.423 v -20.95 h 31.299 a 56.641,56.641 0 0 0 30.125,20.95 z m -32.932,-25.14 h -90.5 v -20.948 h 82.875 a 57.127,57.127 0 0 0 7.625,20.949 z m -8.337,-172.328 v 17.304 h -85.431 c -0.042,-6.159 -0.126,-14.455 -0.084,-20.95 h 92.344 l -6.83,3.646 z m 25.348,-13.575 -10.726,5.74 h -46.675 v -20.95 h 95.571 v 20.95 h -33.603 z m 7.92,9.93 h 86.73 v 20.95 h -70.18 c -6.747,-8.632 -12.487,-15.839 -16.55,-20.95 z m 36.325,46.004 -2.849,-3.645 c -4.776,-6.075 -9.343,-11.899 -13.575,-17.22 h 117.106 v 25.14 h -97.33 c -1.09,-1.425 -2.22,-2.85 -3.352,-4.275 z m 6.662,8.464 h 43.742 v 16.76 h -30.67 c -4.399,-5.657 -8.798,-11.271 -13.072,-16.76 z m 33.226,42.695 a 6241.644,6241.644 0 0 0 -16.885,-21.746 h 80.11 v 25.14 h -60.628 z m 5.824,7.583 h 110.527 v 20.95 h -94.607 c -5.028,-6.662 -10.39,-13.701 -15.921,-20.95 z m 19.063,25.14 h 31.047 v 20.949 h -15.586 c -4.274,-5.908 -9.47,-12.947 -15.46,-20.95 z m 18.436,25.139 h 73.029 v 20.949 h -59.747 c -0.42,-1.132 -0.964,-2.263 -1.593,-3.436 -2.095,-3.687 -6.117,-9.72 -11.69,-17.513 z m 12.695,34.985 c 1.718,-3.017 2.304,-6.327 1.76,-9.846 h 12.36 v 20.949 h -28.24 c 6.913,-3.017 11.606,-6.704 14.12,-11.103 z m 65.613,26.899 h -106.925 v -9.008 c 2.765,-0.336 8.17,-1.09 14.287,-2.598 h 92.638 z m 96.115,0 h -91.925 v -11.606 h 91.925 z m 40.935,0 h -36.745 v -11.606 h 31.592 c 1.676,0.963 3.393,1.885 5.153,2.807 z m -522.520001,-46.084 h -36.068 l 36.172,-38.69 v -7.133 h -0.42 l -37.85,40.262 -34.6,-36.907 h -0.524 v 6.817 l 33.447,35.65 h -33.447 v 5.66 h 73.29 v -5.66 z m 0.104,-108.085 h -5.348 v 41.309 h -68.046 v 5.663 h 73.394 z m 0,-70.444 h -5.452 v 46.344 h -28.938 v -42.99 h -5.137 v 42.99 h -28.52 v -45.086 h -5.347 v 50.642 h 73.394 z m 0,-50.52 c 0,-12.582 -4.09,-26.633 -19.188,-26.633 -8.492,0 -15.937,5.244 -18.453,14.47 -2.306,-7.338 -8.177,-11.953 -15.726,-11.953 -13.947,0 -20.027,11.743 -20.027,24.116 v 30.092 h 73.394 z m -40.157,24.43 h -28.413 v -24.43 c 0,-9.122 4.507,-18.768 15.203,-18.768 10.484,0 13.21,9.226 13.21,18.033 v 25.164 z m 34.705,0 h -29.358 v -25.166 c 0,-9.854 4.09,-20.235 15.518,-20.34 11.639,0 13.84,11.848 13.84,21.075 v 24.43 z m 5.452,-124.334 h -5.452 v 46.344 h -28.938 v -42.989 h -5.137 v 42.99 h -28.52 v -45.087 h -5.347 v 50.643 h 73.394 v -51.9 z m 0,-26.089995 h -27.784 v -20.025 l 27.784,-25.374 v -7.445 l -28.1,25.898 c 0,-16.041 -10.484,-23.905 -22.438,-23.801 -11.428,0.104 -22.856,8.18 -22.856,24.115 v 32.293 h 73.394 v -5.662 z m -33.132,0 h -35.02 v -26.63 c 0,-12.163 8.913,-18.035 17.51,-17.93 10.276,0.104 17.51,5.767 17.51,18.557 z"
     fill="#3f3f3f"
     id="path122" />
</svg>
