<?xml version="1.0" encoding="UTF-8" standalone="no"?>
<svg
   xmlns:dc="http://purl.org/dc/elements/1.1/"
   xmlns:cc="http://creativecommons.org/ns#"
   xmlns:rdf="http://www.w3.org/1999/02/22-rdf-syntax-ns#"
   xmlns:svg="http://www.w3.org/2000/svg"
   xmlns="http://www.w3.org/2000/svg"
   xmlns:sodipodi="http://sodipodi.sourceforge.net/DTD/sodipodi-0.dtd"
   xmlns:inkscape="http://www.inkscape.org/namespaces/inkscape"
   version="1.1"
   id="layer"
   x="0px"
   y="0px"
   viewBox="-153 -46 648 300"
   xml:space="preserve"
   sodipodi:docname="walter_logo.svg"
   width="648"
   height="300"
   inkscape:version="1.0.2 (e86c870879, 2021-01-15)"><metadata
   id="metadata21"><rdf:RDF><cc:Work
       rdf:about=""><dc:format>image/svg+xml</dc:format><dc:type
         rdf:resource="http://purl.org/dc/dcmitype/StillImage" /><dc:title></dc:title></cc:Work></rdf:RDF></metadata><defs
   id="defs19" /><sodipodi:namedview
   pagecolor="#ffffff"
   bordercolor="#666666"
   borderopacity="1"
   objecttolerance="10"
   gridtolerance="10"
   guidetolerance="10"
   inkscape:pageopacity="0"
   inkscape:pageshadow="2"
   inkscape:window-width="1920"
   inkscape:window-height="1016"
   id="namedview17"
   showgrid="false"
   inkscape:zoom="1.4118735"
   inkscape:cx="310.76316"
   inkscape:cy="321.44123"
   inkscape:window-x="0"
   inkscape:window-y="27"
   inkscape:window-maximized="1"
   inkscape:current-layer="layer" />
<style
   type="text/css"
   id="style2">
	.st0{fill:#006599;}
	.st1{fill:#0F1216;}
	.st2{fill:#F6BC25;}
	.st3{fill:#C51E46;}
	.st4{fill:#317931;}
</style>
<path
   class="st0"
   d="m -38.1,99.6 h 9.8 V 139 h -9.8 z"
   id="path4" />
<path
   class="st1"
   d="M -126.6,119.3 H -48 v 9.8 h -78.7 v -9.8 z"
   id="path6" />
<path
   class="st2"
   d="m -18.4,30.8 h 9.8 v 123 h -9.8 z"
   id="path8" />
<path
   class="st3"
   d="M 1.2,60.3 H 11 v 123 H 1.2 c 0,-0.1 0,-123 0,-123 z"
   id="path10" />
<path
   class="st4"
   d="m 20.9,40.6 h 9.8 v 78.7 h -9.8 z"
   id="path12" />
<path
   class="st1"
   d="m 109.4,134 c 4.9,0 9.8,-4.9 9.8,-9.8 V 84.9 h -9.8 v 34.4 c 0,0 -3,5.9 -4.9,4.9 -2.5,1 -18.7,1 -19.7,0 V 84.9 H 75 v 39.3 c -1,1 -17.2,1 -19.7,0 -2,1 -4.9,-4.9 -4.9,-4.9 V 84.9 h -9.8 v 39.3 c 0,4.9 4.9,9.8 9.8,9.8 0,0 59,0 59,0 z M 257,84.9 v 9.8 h 29.5 V 134 h 9.8 V 94.7 h 29.5 v -9.8 c 0,0 -68.8,0 -68.8,0 z m 83.6,29.5 v 4.9 c 0,0 3.4,5.9 4.9,4.9 2.5,1 54.1,1 54.1,0 v 9.8 h -59 c -4.4,0 -9.8,-4.9 -9.8,-9.8 V 94.7 c 0,-4.9 5.4,-9.8 9.8,-9.8 h 59 v 9.8 c 0,-1 -51.6,-1 -54.1,0 -1.5,-1 -4.9,4.9 -4.9,4.9 v 4.9 h 49.2 v 9.8 z m -118.1,9.8 c 2.5,1 54.1,1 54.1,0 v 9.8 h -59 c -4.9,0 -9.8,-4.9 -9.8,-9.8 V 84.9 h 9.8 v 34.4 c 0,0 3.5,5.9 4.9,4.9 z m 241,-24.6 c 0,3.4 -2,4.9 -5.4,4.9 h -38.9 v -9.8 h 38.9 c 3.4,0 5.4,1.5 5.4,4.9 z m 9.9,-4.9 c 0,-4.9 -5.4,-9.8 -9.8,-9.8 h -54.1 v 49.2 h 9.8 v -19.7 h 39.3 l 4.9,4.9 V 134 h 9.8 v -14.8 c 0,-4.9 -3,-7.4 -4.9,-9.8 2,2.5 4.9,-0.5 4.9,-4.9 z M 188.1,109.5 H 138.9 V 98.2 c 0,-2.5 2,-3.9 5.4,-3.9 h 38.4 c 3.9,0 5.4,1.5 5.4,3.9 z M 163.5,84.9 h -24.6 c -4.9,0 -9.8,4.9 -9.8,9.8 V 134 h 9.8 v -14.8 h 49.2 V 134 h 9.8 V 94.7 c 0,-4.9 -4.9,-9.8 -9.8,-9.8 0,0 -24.6,0 -24.6,0 z"
   id="path14" />
</svg>
